<?xml version="1.0" encoding="UTF-8"?>
<svg height="16px" viewBox="0 0 16 16" width="16px" xmlns="http://www.w3.org/2000/svg">
    <path d="m 5.5,0.5 c -0.542,0 -0.983375,0.0644687 -1.359375,0.23046875 a 1.72,1.72 0 0 0 -0.8378906,0.79687505 c -0.34,0.68 -0.3027344,1.4726562 -0.3027344,2.4726562 v 8 c 0,1 -0.037266,1.793656 0.3027344,2.472656 0.17,0.34 0.4618906,0.629875 0.8378906,0.796875 0.375,0.166 0.817375,0.230469 1.359375,0.230469 h 5 c 0.542,0 0.983375,-0.06447 1.359375,-0.230469 a 1.72,1.72 0 0 0 0.837891,-0.796875 c 0.34,-0.68 0.302734,-1.472656 0.302734,-2.472656 v -8 c 0,-1 0.03727,-1.7936563 -0.302734,-2.4726562 a 1.72,1.72 0 0 0 -0.837891,-0.79687505 c -0.375,-0.167 -0.817375,-0.23046875 -1.359375,-0.23046875 z m 0,1 h 5 c 0.458,0 0.766125,0.060531 0.953125,0.1445312 0.187,0.083 0.269609,0.1671251 0.349609,0.328125 0.16,0.3200001 0.197266,1.0273438 0.197266,2.0273438 v 8 c 0,1 -0.03727,1.706344 -0.197266,2.027344 a 0.615,0.615 0 0 1 -0.349609,0.328125 c -0.187,0.083 -0.495125,0.144531 -0.953125,0.144531 h -5 c -0.458,0 -0.766125,-0.06153 -0.953125,-0.144531 a 0.615,0.615 0 0 1 -0.3496094,-0.328125 c -0.16,-0.32 -0.1972656,-1.027344 -0.1972656,-2.027344 v -8 c 0,-1 0.037266,-1.7063437 0.1972656,-2.0273438 a 0.615,0.615 0 0 1 0.3496094,-0.328125 c 0.187,-0.085 0.495125,-0.1445312 0.953125,-0.1445312 z m -0.5,1 v 4 h 6 v -4 z m 3,5 c -1.65,0 -3,1.35 -3,3 0,1.651 1.35,3 3,3 1.651,0 3,-1.349 3,-3 0,-1.65 -1.349,-3 -3,-3 z m 0,1 c 1.11,0 2,0.89 2,2 0,1.11 -0.89,2 -2,2 -1.11,0 -2,-0.89 -2,-2 0,-1.11 0.89,-2 2,-2 z" fill="#2e3434"/>
</svg>
